<?xml version="1.0" encoding="iso-8859-1"?>
<!-- Generator: Adobe Illustrator 19.0.0, SVG Export Plug-In . SVG Version: 6.00 Build 0)  -->
<svg version="1.1" id="Capa_1" xmlns="http://www.w3.org/2000/svg" xmlns:xlink="http://www.w3.org/1999/xlink" x="0px" y="0px"
	 viewBox="0 0 511.878 511.878" style="enable-background:new 0 0 511.878 511.878;" xml:space="preserve">
<path style="fill:#415A6B;" d="M361.539,161.067c-22.4,0-40.533-18.133-40.533-40.533V28.8c0-3.2,2.133-5.333,5.333-5.333
	c3.2,0,5.333,2.133,5.333,5.333v91.733c0,17.067,13.867,29.867,29.867,29.867c17.067,0,29.867-13.867,29.867-29.867V36.267
	c1.067-2.133,3.2-4.267,5.333-4.267c3.2,0,5.333,2.133,5.333,5.333V121.6C402.072,142.933,383.939,161.067,361.539,161.067z"/>
<path style="fill:#66C6B9;" d="M104.472,470.4h313.6c17.067,0,30.933-13.867,30.933-30.933v-355.2
	c0-17.067-13.867-30.933-30.933-30.933h-313.6c-17.067,0-30.933,13.867-30.933,30.933v355.2
	C72.472,456.533,87.406,470.4,104.472,470.4z"/>
<path style="fill:#E8EAE9;" d="M154.606,510.933l304-75.733c17.067-4.267,26.667-21.333,22.4-38.4L395.672,52.267
	c-4.267-17.067-21.333-26.667-38.4-22.4l-304,75.733c-17.067,4.267-26.667,21.333-22.4,38.4l86.4,344.533
	C120.472,504.533,137.539,515.2,154.606,510.933z"/>
<path style="fill:#F3F3F3;" d="M154.606,510.933l304-75.733c17.067-4.267,26.667-21.333,22.4-38.4L395.672,52.267
	c-4.267-17.067-21.333-26.667-38.4-22.4l-304,75.733c-17.067,4.267-26.667,21.333-22.4,38.4l86.4,344.533
	C120.472,504.533,137.539,515.2,154.606,510.933z"/>
<g>
	
		<rect x="260.323" y="198.912" transform="matrix(-0.2429 -0.97 0.97 -0.2429 12.7498 680.8276)" style="fill:#CED6E0;" width="23.466" height="273.053"/>
	
		<rect x="277.343" y="266.413" transform="matrix(-0.2429 -0.97 0.97 -0.2429 -31.5754 781.2365)" style="fill:#CED6E0;" width="23.466" height="273.053"/>
</g>
<path style="fill:#F3705A;" d="M314.606,150.4c12.8,51.2-55.467,132.267-55.467,132.267s-99.2-39.467-112-90.667
	c-6.4-24.533,8.533-50.133,34.133-56.533c17.067-4.267,33.067,1.067,44.8,12.8c4.267-14.933,17.067-27.733,33.067-32
	C283.672,109.867,308.206,124.8,314.606,150.4z"/>
<path style="fill:#415A6B;" d="M361.539,119.467c-9.6,0-17.067-7.467-17.067-17.067V53.333c0-3.2,2.133-5.333,5.333-5.333
	c3.2,0,5.333,2.133,5.333,5.333v50.133c0,3.2,3.2,6.4,6.4,6.4c4.267,0,6.4-3.2,6.4-6.4V28.8c0-10.667-8.533-18.133-18.133-18.133
	c-10.667,0-18.133,8.533-18.133,18.133c0,3.2-2.133,5.333-5.333,5.333S321.006,32,321.006,28.8c0-16,12.8-28.8,28.8-28.8
	s28.8,12.8,28.8,28.8v73.6C378.606,112,371.139,119.467,361.539,119.467z"/>
<g>
</g>
<g>
</g>
<g>
</g>
<g>
</g>
<g>
</g>
<g>
</g>
<g>
</g>
<g>
</g>
<g>
</g>
<g>
</g>
<g>
</g>
<g>
</g>
<g>
</g>
<g>
</g>
<g>
</g>
</svg>
