<?xml version="1.0" encoding="iso-8859-1"?>
<!-- Generator: Adobe Illustrator 19.0.0, SVG Export Plug-In . SVG Version: 6.00 Build 0)  -->
<svg version="1.1" id="Capa_1" xmlns="http://www.w3.org/2000/svg" xmlns:xlink="http://www.w3.org/1999/xlink" x="0px" y="0px"
	 viewBox="0 0 512 512" style="enable-background:new 0 0 512 512;" xml:space="preserve">
<path style="fill:#F3F3F3;" d="M462.933,21.333v469.333c0,11.733-9.6,21.333-21.333,21.333H152.533V0H441.6
	C453.333,0,462.933,9.6,462.933,21.333z"/>
<path style="fill:#66C6B9;" d="M152.533,0h-70.4C58.667,0,39.467,19.2,39.467,42.667v426.667c0,23.467,19.2,42.667,42.667,42.667
	h69.333V0H152.533z"/>
<g>
	<path style="fill:#415A6B;" d="M20.267,117.333h54.4C86.4,117.333,96,107.733,96,96s-9.6-20.267-20.267-20.267H20.267
		C9.6,75.733,0,85.333,0,96S9.6,117.333,20.267,117.333z"/>
	<path style="fill:#415A6B;" d="M75.733,394.667H20.267C9.6,394.667,0,404.267,0,414.933C0,426.667,9.6,435.2,20.267,435.2h54.4
		C86.4,436.267,96,426.667,96,414.933C96,404.267,86.4,394.667,75.733,394.667z"/>
</g>
<path style="fill:#55C0EB;" d="M497.067,32H464v83.2h33.067c8.533,0,14.933-6.4,14.933-14.933V48C512,39.467,505.6,32,497.067,32z"
	/>
<path style="fill:#FFD15C;" d="M497.067,124.8H464V208h33.067C505.6,208,512,201.6,512,193.067V140.8
	C512,132.267,505.6,124.8,497.067,124.8z"/>
<path style="fill:#55C0EB;" d="M497.067,218.667H464v83.2h33.067c8.533,0,14.933-6.4,14.933-14.933v-52.267
	C512,225.067,505.6,218.667,497.067,218.667z"/>
<path style="fill:#FFD15C;" d="M497.067,311.467H464v83.2h33.067c8.533,0,14.933-6.4,14.933-14.933v-52.267
	C512,317.867,505.6,311.467,497.067,311.467z"/>
<g>
	<rect x="201.6" y="293.333" style="fill:#CED6E0;" width="193.067" height="24.533"/>
	<rect x="201.6" y="357.333" style="fill:#CED6E0;" width="193.067" height="24.533"/>
	<rect x="201.6" y="420.267" style="fill:#CED6E0;" width="117.333" height="24.533"/>
</g>
<path style="fill:#F3705A;" d="M344.533,67.2c-21.333,0-39.467,13.867-46.933,32c-7.467-19.2-25.6-32-46.933-32
	c-27.733,0-50.133,22.4-50.133,50.133c0,40.533,97.067,113.067,97.067,113.067s96-72.533,96-113.067
	C394.667,89.6,372.267,67.2,344.533,67.2z"/>
<g>
</g>
<g>
</g>
<g>
</g>
<g>
</g>
<g>
</g>
<g>
</g>
<g>
</g>
<g>
</g>
<g>
</g>
<g>
</g>
<g>
</g>
<g>
</g>
<g>
</g>
<g>
</g>
<g>
</g>
</svg>
